HIERARCHY
ROOT hip
{
  OFFSET 0 0 0
  CHANNELS 6 Xposition Yposition Zposition Zrotation Yrotation Xrotation
  JOINT abdomen
  {
    OFFSET 0 20.6881 -0.73152
    CHANNELS 3 Zrotation Xrotation Yrotation
    JOINT chest
    {
      OFFSET 0 11.7043 -0.48768
      CHANNELS 3 Zrotation Xrotation Yrotation
      JOINT neck
      {
        OFFSET 0 22.1894 -2.19456
        CHANNELS 3 Zrotation Xrotation Yrotation
        JOINT head
        {
          OFFSET -0.24384 7.07133 1.2192
          CHANNELS 3 Zrotation Xrotation Yrotation
          JOINT leftEye
          {
            OFFSET 4.14528 8.04674 8.04672
            CHANNELS 3 Zrotation Xrotation Yrotation
            End Site
            {
              OFFSET 1 0 0
            }
          }
          JOINT rightEye
          {
            OFFSET -3.6576 8.04674 8.04672
            CHANNELS 3 Zrotation Xrotation Yrotation
            End Site
            {
              OFFSET 1 0 0
            }
          }
        }
      }
      JOINT rCollar
      {
        OFFSET -2.68224 19.2634 -4.8768
        CHANNELS 3 Zrotation Xrotation Yrotation
        JOINT rShldr
        {
          OFFSET -8.77824 -1.95073 1.46304
          CHANNELS 3 Zrotation Xrotation Yrotation
          JOINT rForeArm
          {
            OFFSET -28.1742 -1.7115 0.48768
            CHANNELS 3 Zrotation Xrotation Yrotation
            JOINT rHand
            {
              OFFSET -22.5879 0.773209 7.07136
              CHANNELS 3 Zrotation Xrotation Yrotation
              JOINT rThumb1
              {
                OFFSET -1.2192 -0.487915 3.41376
                CHANNELS 3 Zrotation Xrotation Yrotation
                JOINT rThumb2
                {
                  OFFSET -3.37035 -0.52449 3.41376
                  CHANNELS 3 Zrotation Xrotation Yrotation
                  End Site
                  {
                    OFFSET -1.78271 -1.18214 1.43049
                  }
                }
              }
              JOINT rIndex1
              {
                OFFSET -7.75947 0.938293 5.60832
                CHANNELS 3 Zrotation Xrotation Yrotation
                JOINT rIndex2
                {
                  OFFSET -2.54057 -0.884171 1.56538
                  CHANNELS 3 Zrotation Xrotation Yrotation
                  End Site
                  {
                    OFFSET -1.62519 -0.234802 1.16502
                  }
                }
              }
              JOINT rMid1
              {
                OFFSET -8.24714 1.18213 3.41376
                CHANNELS 3 Zrotation Xrotation Yrotation
                JOINT rMid2
                {
                  OFFSET -3.10165 -0.590103 1.0647
                  CHANNELS 3 Zrotation Xrotation Yrotation
                  End Site
                  {
                    OFFSET -2.48547 -0.328903 0.83742
                  }
                }
              }
              JOINT rRing1
              {
                OFFSET -8.82822 0.546677 1.51678
                CHANNELS 3 Zrotation Xrotation Yrotation
                JOINT rRing2
                {
                  OFFSET -2.60934 -0.819778 -0.0198488
                  CHANNELS 3 Zrotation Xrotation Yrotation
                  End Site
                  {
                    OFFSET -2.33842 -0.294052 0.168128
                  }
                }
              }
              JOINT rPinky1
              {
                OFFSET -8.27202 -0.0477905 -0.4584
                CHANNELS 3 Zrotation Xrotation Yrotation
                JOINT rPinky2
                {
                  OFFSET -1.82734 -0.647385 -0.700984
                  CHANNELS 3 Zrotation Xrotation Yrotation
                  End Site
                  {
                    OFFSET -1.69225 -0.51767 -0.607171
                  }
                }
              }
            }
          }
        }
      }
      JOINT lCollar
      {
        OFFSET 2.68224 19.2634 -4.8768
        CHANNELS 3 Zrotation Xrotation Yrotation
        JOINT lShldr
        {
          OFFSET 8.77824 -1.95073 1.46304
          CHANNELS 3 Zrotation Xrotation Yrotation
          JOINT lForeArm
          {
            OFFSET 28.1742 -1.7115 0.48768
            CHANNELS 3 Zrotation Xrotation Yrotation
            JOINT lHand
            {
              OFFSET 22.5879 0.773209 7.07136
              CHANNELS 3 Zrotation Xrotation Yrotation
              JOINT lThumb1
              {
                OFFSET 1.2192 -0.487915 3.41376
                CHANNELS 3 Zrotation Xrotation Yrotation
                JOINT lThumb2
                {
                  OFFSET 3.37035 -0.52449 3.41376
                  CHANNELS 3 Zrotation Xrotation Yrotation
                  End Site
                  {
                    OFFSET 1.78271 -1.18214 1.43049
                  }
                }
              }
              JOINT lIndex1
              {
                OFFSET 7.75947 0.938293 5.60832
                CHANNELS 3 Zrotation Xrotation Yrotation
                JOINT lIndex2
                {
                  OFFSET 2.54057 -0.884171 1.56538
                  CHANNELS 3 Zrotation Xrotation Yrotation
                  End Site
                  {
                    OFFSET 1.62519 -0.234802 1.16502
                  }
                }
              }
              JOINT lMid1
              {
                OFFSET 8.24714 1.18213 3.41376
                CHANNELS 3 Zrotation Xrotation Yrotation
                JOINT lMid2
                {
                  OFFSET 3.10165 -0.590103 1.0647
                  CHANNELS 3 Zrotation Xrotation Yrotation
                  End Site
                  {
                    OFFSET 2.48547 -0.328903 0.83742
                  }
                }
              }
              JOINT lRing1
              {
                OFFSET 8.82822 0.546677 1.51678
                CHANNELS 3 Zrotation Xrotation Yrotation
                JOINT lRing2
                {
                  OFFSET 2.60934 -0.819778 -0.0198488
                  CHANNELS 3 Zrotation Xrotation Yrotation
                  End Site
                  {
                    OFFSET 2.33842 -0.294052 0.168128
                  }
                }
              }
              JOINT lPinky1
              {
                OFFSET 8.27202 -0.0477905 -0.4584
                CHANNELS 3 Zrotation Xrotation Yrotation
                JOINT lPinky2
                {
                  OFFSET 1.82734 -0.647385 -0.700984
                  CHANNELS 3 Zrotation Xrotation Yrotation
                  End Site
                  {
                    OFFSET 1.69225 -0.51767 -0.607171
                  }
                }
              }
            }
          }
        }
      }
    }
  }
  JOINT rButtock
  {
    OFFSET -8.77824 4.35084 1.2192
    CHANNELS 3 Zrotation Xrotation Yrotation
    JOINT rThigh
    {
      OFFSET 0 -1.70687 -2.19456
      CHANNELS 3 Zrotation Xrotation Yrotation
      JOINT rShin
      {
        OFFSET 0 -36.8199 0.73152
        CHANNELS 3 Zrotation Xrotation Yrotation
        JOINT rFoot
        {
          OFFSET 0.73152 -45.1104 -5.12064
          CHANNELS 3 Zrotation Xrotation Yrotation
          End Site
          {
            OFFSET -1.1221 -3.69964 12.103
          }
        }
      }
    }
  }
  JOINT lButtock
  {
    OFFSET 8.77824 4.35084 1.2192
    CHANNELS 3 Zrotation Xrotation Yrotation
    JOINT lThigh
    {
      OFFSET 0 -1.70687 -2.19456
      CHANNELS 3 Zrotation Xrotation Yrotation
      JOINT lShin
      {
        OFFSET 0 -36.8199 0.73152
        CHANNELS 3 Zrotation Xrotation Yrotation
        JOINT lFoot
        {
          OFFSET -0.73152 -45.1104 -5.12064
          CHANNELS 3 Zrotation Xrotation Yrotation
          End Site
          {
            OFFSET 1.1221 -3.69964 12.103
          }
        }
      }
    }
  }
}
MOTION
Frames:	5
Frame Time:	0.03333
34.5304 73.2723 -3.8998999999999997 179.11216 51.620327 167.287673 -11.801351 24.240271 -0.0 4.425788 -9.627628 9.820875 3.550727 17.973853 88.191357 -12.900252 2.084598 -120.398291 0.002428 -0.0 -0.002886 0.002186 0.0 0.0027 0.162995 -0.990087 -0.218243 64.027528 19.044972 5.650089 86.77414 60.291393 76.132632 -53.573846 53.04001 32.857869 -0.4418 0.435184 0.069582 7.409328 -10.038212 -5.576218 112.658988 -76.28657 61.489067 -179.616262 -47.675234 108.2116 -156.686612 5.002445 141.075919 2.698644 1.640326 0.582361 0.003087 1.772289 0.557045 11.286214 -44.107966 -5.44969 -162.363916 72.063279 -150.905253 -5.694417 -15.806978 -7.441985 142.974283 39.431663 -147.390021 61.227347 8.685665 -24.996806 173.190611 2.556259 60.789749 9.936998 -28.040208 7.088991 175.330048 -12.974874 -89.797876 118.610135 15.548999 -55.608909 -14.649547 -26.292294 5.618731 51.245153 48.208265 -40.897407 -0.540284 -1.589995 0.295937 163.329741 -4.924196 -143.36538 0.001505 -0.018257 0.007444 -10.290648 0.620119 -0.014478 7.145095 -15.707171 6.728297 147.554073 13.429416 144.066587 179.994078 75.749906 0.00611 144.816761 -13.145434 84.294004 88.232254 6.839159 -89.573337 113.405484 -32.504142 -33.493348 -0.0 0.000724 0.000543 7.68252 3.252655 -67.187526 -61.353306 14.696686 -61.21803 -74.814235 36.723735 -161.409916
35.99 73.0079 -3.9697999999999998 179.503186 50.296609 168.106383 -9.1869 19.42073 -120.07653 3.347126 4.846666 127.29154 -13.825531 28.111651 -127.681086 9.538217 24.101055 99.451176 0.003239 0.0 0.002434 -0.003259 0.0 -0.002172 1.671347 -11.458675 -2.379438 65.406325 26.41744 -6.797452 84.902246 60.132003 84.908929 -58.815522 51.462763 38.28488 1.842303 -1.827146 -0.255109 15.967199 -26.322524 -13.373618 10.746217 -19.048254 -4.724591 -85.328147 47.637851 68.649123 68.982147 -80.154658 40.57731 2.970984 0.155256 0.183151 -70.640145 72.966305 88.425022 -60.202316 -82.193636 -77.191003 6.226472 18.790109 5.571406 -159.948049 55.508369 -149.965342 14.148804 43.061442 -15.99686 22.974261 11.069081 -78.629627 113.280303 54.920642 46.607058 -179.225818 -37.10384 -146.709202 103.199513 36.331019 -60.111354 3.001071 -20.413497 -26.507088 108.428435 34.160657 -91.742292 65.013726 53.90909 -44.76903 10.976055 25.789576 -7.641537 171.993164 -31.36076 -144.081526 145.118554 0.268048 179.211913 156.346771 12.41975 -179.302895 157.333078 57.246453 150.509609 24.602264 -39.19278 25.135879 -179.99514 75.749722 -0.005015 147.708475 -5.533337 -180.0 93.865575 -85.126124 99.487467 135.89997 40.527175 -154.311631 0.001022 -0.001422 0.002044 6.984637 4.418565 -0.401738 -3.775969 50.90413 -34.958143 -153.951919 -63.955753 -78.572743
37.466899999999995 72.8013 -3.8579000000000003 179.176756 49.236632 167.569443 -11.611769 22.120428 3.97141 4.791863 -8.315126 3.297327 -17.6578 20.699939 -74.878948 18.309581 11.830019 47.6927 0.001749 0.0 0.00286 0.001749 0.0 0.00286 -142.973561 39.431594 147.390019 -46.48506 5.352811 45.026525 -0.393264 3.395996 -158.42625 -157.681442 17.084052 136.867677 16.054724 -15.915445 -0.228909 -70.790344 34.295679 58.410814 -138.49348 4.896423 114.864933 -63.809954 56.642822 45.561444 2.100442 -6.305396 -1.081026 -55.996103 62.33505 49.19767 -71.925822 72.97493 89.771379 -65.401733 83.059984 74.205789 -1.176866 -2.985647 -1.091673 38.22489 81.620777 -1.422773 -0.11782 -0.714033 0.158275 -38.072331 19.503478 -56.745543 -104.810903 63.26648 -87.039681 147.411597 46.790396 -122.54287 -88.928376 -50.831085 -37.599737 160.70909 -27.968682 -126.879227 -73.418294 -73.572341 -26.562935 163.724617 -27.37507 -114.441853 160.67463 -6.667651 -143.244984 172.312321 -31.3613 -143.653824 -0.00454 1.771484 -0.555852 -9.212405 11.529961 -1.488853 153.204004 41.296009 148.283246 -10.304801 24.846989 -3.95003 -179.994408 75.749011 -0.002862 148.960763 5.191495 2.435621 -1.670166 69.445105 99.713645 -121.702278 18.048528 91.577411 -179.997922 75.750193 -0.001833 -144.005826 78.467316 0.0 41.472619 34.675652 -15.745578 77.94031 -25.327183 7.990668
38.9042 72.3759 -3.6954000000000002 178.524072 48.567496 166.774096 -12.911626 22.075958 4.419041 5.36597 -7.888235 1.978629 -6.360966 11.697436 17.018883 3.626483 -6.614 -45.92832 0.002326 0.0 0.000971 0.003413 -0.0 -0.000339 -0.049181 0.292291 0.065832 -109.05329 -4.130661 173.606477 -5.430888 -10.422877 -148.432092 -168.070765 1.346095 142.068212 -78.031335 38.689615 42.412012 -144.810111 -30.209222 83.088326 11.980831 -21.346988 -5.061747 7.101503 9.752214 0.738146 -89.835897 60.703094 81.262788 80.821544 -77.803384 52.17173 0.002082 0.063855 0.019911 -149.759208 39.771064 164.575469 -12.007294 -23.632312 -11.401589 62.049819 85.622497 -23.362759 155.809494 -5.555131 -162.267633 -113.527609 38.115326 111.838948 -171.345495 -5.836431 -20.155823 162.655765 23.256645 -135.994147 174.053275 -11.718274 -89.877234 163.322218 -2.204634 -87.009889 -21.121144 -37.641953 5.921494 111.582933 39.010013 -91.032196 0.058285 0.167836 -0.031375 -179.883749 -49.539514 -141.241158 145.119761 0.226277 179.200221 -11.901556 29.423787 5.657932 161.708551 70.564064 151.023888 84.68418 -52.698513 83.223963 -179.997974 75.750109 -0.002091 149.12135 11.741866 71.205737 60.509412 24.998656 64.430523 90.590761 68.851933 -131.940823 0.005193 -0.001529 0.002597 6.706366 5.087775 72.673499 61.504342 8.135536 49.054187 -39.187135 37.505015 -90.00972
40.4463 71.68679999999999 -3.4842999999999997 176.784732 47.920819 165.437368 -12.600657 18.47527 -131.159132 -0.686639 5.699798 135.723969 -17.613369 27.194176 -105.622034 14.876056 22.01944 76.139362 0.000556 -0.0 -0.000161 0.00162 -0.0 -0.001233 0.118303 -0.714011 -0.15811 -111.461427 -20.244203 169.851861 19.210936 -43.328957 -124.274077 -164.509277 17.363047 137.814032 -97.283075 37.461436 56.024366 -91.041737 -5.326387 62.159014 -27.606695 30.766363 20.255998 -98.961434 46.316714 74.944011 23.905659 -61.333487 1.401812 -176.728913 -42.213043 142.761979 -77.741394 72.90313 95.87007 -159.465546 -14.738819 178.293585 26.856149 80.01141 10.217492 1.506011 0.330173 -0.836614 153.653318 7.090786 -159.412845 95.218796 -32.30476 86.212317 140.605531 -11.635992 46.209768 -5.567766 -64.748149 5.496035 121.364471 30.329303 -71.95769 -90.268834 -50.462549 -49.860278 1.396539 2.231439 -0.809789 -2.15105 12.441035 -2.288012 167.376072 -28.008566 -145.268011 -2.795544 1.007861 -0.48594 0.000646 -0.018639 0.004825 -5.633851 36.118212 -6.1918 -31.492741 83.083146 -6.670228 146.977427 7.189133 141.570584 -0.003124 -0.000397 -0.003124 -42.363572 -46.554902 -51.475854 -26.108951 36.732731 33.894371 108.123585 -40.607431 -51.354019 -0.000603 0.000698 0.000775 6.982669 5.086775 101.960586 62.928248 -10.813317 98.100229 79.884929 41.961364 150.023896
